<mxfile host="app.diagrams.net" modified="2021-11-30T03:13:18.127Z" agent="5.0 (Macintosh; Intel Mac OS X 10_15_7) AppleWebKit/537.36 (KHTML, like Gecko) Chrome/96.0.4664.55 Safari/537.36" etag="sk1oAcxn8Eijy6cSkNOK" version="15.7.3" type="github">
  <diagram id="Jmmk1k2YUgxQvY8tU-ZC" name="Page-1">
    <mxGraphModel dx="946" dy="1726" grid="1" gridSize="10" guides="1" tooltips="1" connect="1" arrows="1" fold="1" page="1" pageScale="1" pageWidth="827" pageHeight="1169" math="0" shadow="0">
      <root>
        <mxCell id="0" />
        <mxCell id="1" parent="0" />
        <mxCell id="Fcmm4_oHTly-XwnHd6Lo-9" value="" style="edgeStyle=orthogonalEdgeStyle;rounded=0;orthogonalLoop=1;jettySize=auto;html=1;" edge="1" parent="1" source="Fcmm4_oHTly-XwnHd6Lo-5" target="Fcmm4_oHTly-XwnHd6Lo-8">
          <mxGeometry relative="1" as="geometry" />
        </mxCell>
        <mxCell id="Fcmm4_oHTly-XwnHd6Lo-5" value="1" style="whiteSpace=wrap;html=1;aspect=fixed;fillColor=#1ba1e2;fontColor=#ffffff;strokeColor=#006EAF;" vertex="1" parent="1">
          <mxGeometry x="50" y="80" width="40" height="40" as="geometry" />
        </mxCell>
        <mxCell id="Fcmm4_oHTly-XwnHd6Lo-11" value="" style="edgeStyle=orthogonalEdgeStyle;rounded=0;orthogonalLoop=1;jettySize=auto;html=1;" edge="1" parent="1" source="Fcmm4_oHTly-XwnHd6Lo-8" target="Fcmm4_oHTly-XwnHd6Lo-10">
          <mxGeometry relative="1" as="geometry" />
        </mxCell>
        <mxCell id="Fcmm4_oHTly-XwnHd6Lo-8" value="2" style="whiteSpace=wrap;html=1;aspect=fixed;fillColor=#1ba1e2;fontColor=#ffffff;strokeColor=#006EAF;" vertex="1" parent="1">
          <mxGeometry x="170" y="80" width="40" height="40" as="geometry" />
        </mxCell>
        <mxCell id="Fcmm4_oHTly-XwnHd6Lo-13" value="" style="edgeStyle=orthogonalEdgeStyle;rounded=0;orthogonalLoop=1;jettySize=auto;html=1;" edge="1" parent="1" source="Fcmm4_oHTly-XwnHd6Lo-10" target="Fcmm4_oHTly-XwnHd6Lo-12">
          <mxGeometry relative="1" as="geometry" />
        </mxCell>
        <mxCell id="Fcmm4_oHTly-XwnHd6Lo-10" value="3" style="whiteSpace=wrap;html=1;aspect=fixed;fillColor=#1ba1e2;fontColor=#ffffff;strokeColor=#006EAF;" vertex="1" parent="1">
          <mxGeometry x="290" y="80" width="40" height="40" as="geometry" />
        </mxCell>
        <mxCell id="Fcmm4_oHTly-XwnHd6Lo-15" value="" style="edgeStyle=orthogonalEdgeStyle;rounded=0;orthogonalLoop=1;jettySize=auto;html=1;" edge="1" parent="1" source="Fcmm4_oHTly-XwnHd6Lo-12" target="Fcmm4_oHTly-XwnHd6Lo-14">
          <mxGeometry relative="1" as="geometry" />
        </mxCell>
        <mxCell id="Fcmm4_oHTly-XwnHd6Lo-12" value="4" style="whiteSpace=wrap;html=1;aspect=fixed;fillColor=#1ba1e2;fontColor=#ffffff;strokeColor=#006EAF;" vertex="1" parent="1">
          <mxGeometry x="410" y="80" width="40" height="40" as="geometry" />
        </mxCell>
        <mxCell id="Fcmm4_oHTly-XwnHd6Lo-17" value="" style="edgeStyle=orthogonalEdgeStyle;rounded=0;orthogonalLoop=1;jettySize=auto;html=1;" edge="1" parent="1" source="Fcmm4_oHTly-XwnHd6Lo-14" target="Fcmm4_oHTly-XwnHd6Lo-16">
          <mxGeometry relative="1" as="geometry" />
        </mxCell>
        <mxCell id="Fcmm4_oHTly-XwnHd6Lo-14" value="5" style="whiteSpace=wrap;html=1;aspect=fixed;fillColor=#1ba1e2;fontColor=#ffffff;strokeColor=#006EAF;" vertex="1" parent="1">
          <mxGeometry x="530" y="80" width="40" height="40" as="geometry" />
        </mxCell>
        <mxCell id="Fcmm4_oHTly-XwnHd6Lo-16" value="NULL" style="whiteSpace=wrap;html=1;aspect=fixed;fillColor=#1ba1e2;fontColor=#ffffff;strokeColor=#006EAF;" vertex="1" parent="1">
          <mxGeometry x="650" y="80" width="40" height="40" as="geometry" />
        </mxCell>
        <mxCell id="Fcmm4_oHTly-XwnHd6Lo-19" value="" style="shape=singleArrow;direction=south;whiteSpace=wrap;html=1;fillColor=#60a917;fontColor=#ffffff;strokeColor=#2D7600;" vertex="1" parent="1">
          <mxGeometry x="295" y="20" width="30" height="50" as="geometry" />
        </mxCell>
        <mxCell id="Fcmm4_oHTly-XwnHd6Lo-20" value="" style="shape=curlyBracket;whiteSpace=wrap;html=1;rounded=1;flipH=1;direction=north;rotation=0;size=0.5;" vertex="1" parent="1">
          <mxGeometry x="80" y="140" width="230" height="20" as="geometry" />
        </mxCell>
        <mxCell id="Fcmm4_oHTly-XwnHd6Lo-22" value="&lt;h2&gt;&lt;font face=&quot;Verdana&quot; color=&quot;#007fff&quot;&gt;k步&lt;/font&gt;&lt;/h2&gt;" style="text;html=1;align=center;verticalAlign=middle;resizable=0;points=[];autosize=1;strokeColor=none;fillColor=none;" vertex="1" parent="1">
          <mxGeometry x="170" y="155" width="50" height="50" as="geometry" />
        </mxCell>
        <mxCell id="Fcmm4_oHTly-XwnHd6Lo-23" value="&lt;h2&gt;p1&lt;/h2&gt;" style="text;html=1;align=center;verticalAlign=middle;resizable=0;points=[];autosize=1;strokeColor=none;fillColor=none;" vertex="1" parent="1">
          <mxGeometry x="290" y="-30" width="40" height="50" as="geometry" />
        </mxCell>
        <mxCell id="Fcmm4_oHTly-XwnHd6Lo-24" value="" style="edgeStyle=orthogonalEdgeStyle;rounded=0;orthogonalLoop=1;jettySize=auto;html=1;" edge="1" parent="1" source="Fcmm4_oHTly-XwnHd6Lo-25" target="Fcmm4_oHTly-XwnHd6Lo-27">
          <mxGeometry relative="1" as="geometry" />
        </mxCell>
        <mxCell id="Fcmm4_oHTly-XwnHd6Lo-25" value="1" style="whiteSpace=wrap;html=1;aspect=fixed;fillColor=#1ba1e2;fontColor=#ffffff;strokeColor=#006EAF;" vertex="1" parent="1">
          <mxGeometry x="50" y="260" width="40" height="40" as="geometry" />
        </mxCell>
        <mxCell id="Fcmm4_oHTly-XwnHd6Lo-26" value="" style="edgeStyle=orthogonalEdgeStyle;rounded=0;orthogonalLoop=1;jettySize=auto;html=1;" edge="1" parent="1" source="Fcmm4_oHTly-XwnHd6Lo-27" target="Fcmm4_oHTly-XwnHd6Lo-29">
          <mxGeometry relative="1" as="geometry" />
        </mxCell>
        <mxCell id="Fcmm4_oHTly-XwnHd6Lo-27" value="2" style="whiteSpace=wrap;html=1;aspect=fixed;fillColor=#1ba1e2;fontColor=#ffffff;strokeColor=#006EAF;" vertex="1" parent="1">
          <mxGeometry x="170" y="260" width="40" height="40" as="geometry" />
        </mxCell>
        <mxCell id="Fcmm4_oHTly-XwnHd6Lo-28" value="" style="edgeStyle=orthogonalEdgeStyle;rounded=0;orthogonalLoop=1;jettySize=auto;html=1;" edge="1" parent="1" source="Fcmm4_oHTly-XwnHd6Lo-29" target="Fcmm4_oHTly-XwnHd6Lo-31">
          <mxGeometry relative="1" as="geometry" />
        </mxCell>
        <mxCell id="Fcmm4_oHTly-XwnHd6Lo-29" value="3" style="whiteSpace=wrap;html=1;aspect=fixed;fillColor=#1ba1e2;fontColor=#ffffff;strokeColor=#006EAF;" vertex="1" parent="1">
          <mxGeometry x="290" y="260" width="40" height="40" as="geometry" />
        </mxCell>
        <mxCell id="Fcmm4_oHTly-XwnHd6Lo-30" value="" style="edgeStyle=orthogonalEdgeStyle;rounded=0;orthogonalLoop=1;jettySize=auto;html=1;" edge="1" parent="1" source="Fcmm4_oHTly-XwnHd6Lo-31" target="Fcmm4_oHTly-XwnHd6Lo-33">
          <mxGeometry relative="1" as="geometry" />
        </mxCell>
        <mxCell id="Fcmm4_oHTly-XwnHd6Lo-31" value="4" style="whiteSpace=wrap;html=1;aspect=fixed;fillColor=#1ba1e2;fontColor=#ffffff;strokeColor=#006EAF;" vertex="1" parent="1">
          <mxGeometry x="410" y="260" width="40" height="40" as="geometry" />
        </mxCell>
        <mxCell id="Fcmm4_oHTly-XwnHd6Lo-32" value="" style="edgeStyle=orthogonalEdgeStyle;rounded=0;orthogonalLoop=1;jettySize=auto;html=1;" edge="1" parent="1" source="Fcmm4_oHTly-XwnHd6Lo-33" target="Fcmm4_oHTly-XwnHd6Lo-34">
          <mxGeometry relative="1" as="geometry" />
        </mxCell>
        <mxCell id="Fcmm4_oHTly-XwnHd6Lo-33" value="5" style="whiteSpace=wrap;html=1;aspect=fixed;fillColor=#1ba1e2;fontColor=#ffffff;strokeColor=#006EAF;" vertex="1" parent="1">
          <mxGeometry x="530" y="260" width="40" height="40" as="geometry" />
        </mxCell>
        <mxCell id="Fcmm4_oHTly-XwnHd6Lo-34" value="NULL" style="whiteSpace=wrap;html=1;aspect=fixed;fillColor=#1ba1e2;fontColor=#ffffff;strokeColor=#006EAF;" vertex="1" parent="1">
          <mxGeometry x="650" y="260" width="40" height="40" as="geometry" />
        </mxCell>
        <mxCell id="Fcmm4_oHTly-XwnHd6Lo-35" value="" style="shape=curlyBracket;whiteSpace=wrap;html=1;rounded=1;flipH=1;direction=north;rotation=0;size=0.5;" vertex="1" parent="1">
          <mxGeometry x="75" y="310" width="230" height="20" as="geometry" />
        </mxCell>
        <mxCell id="Fcmm4_oHTly-XwnHd6Lo-36" value="&lt;h2&gt;&lt;font face=&quot;Verdana&quot; color=&quot;#007fff&quot;&gt;k步&lt;/font&gt;&lt;/h2&gt;" style="text;html=1;align=center;verticalAlign=middle;resizable=0;points=[];autosize=1;strokeColor=none;fillColor=none;" vertex="1" parent="1">
          <mxGeometry x="165" y="340" width="50" height="50" as="geometry" />
        </mxCell>
        <mxCell id="Fcmm4_oHTly-XwnHd6Lo-37" value="" style="shape=singleArrow;direction=south;whiteSpace=wrap;html=1;fillColor=#60a917;fontColor=#ffffff;strokeColor=#2D7600;" vertex="1" parent="1">
          <mxGeometry x="295" y="205" width="30" height="50" as="geometry" />
        </mxCell>
        <mxCell id="Fcmm4_oHTly-XwnHd6Lo-38" value="&lt;h2&gt;p1&lt;/h2&gt;" style="text;html=1;align=center;verticalAlign=middle;resizable=0;points=[];autosize=1;strokeColor=none;fillColor=none;" vertex="1" parent="1">
          <mxGeometry x="290" y="160" width="40" height="50" as="geometry" />
        </mxCell>
        <mxCell id="Fcmm4_oHTly-XwnHd6Lo-39" value="" style="shape=singleArrow;direction=south;whiteSpace=wrap;html=1;fillColor=#33FFFF;fontColor=#FFFF00;strokeColor=#2D7600;" vertex="1" parent="1">
          <mxGeometry x="55" y="200" width="30" height="50" as="geometry" />
        </mxCell>
        <mxCell id="Fcmm4_oHTly-XwnHd6Lo-40" value="&lt;h2&gt;&lt;font color=&quot;#331a00&quot;&gt;p2&lt;/font&gt;&lt;/h2&gt;" style="text;html=1;align=center;verticalAlign=middle;resizable=0;points=[];autosize=1;strokeColor=none;fillColor=none;fontFamily=Verdana;fontColor=#FFFF00;" vertex="1" parent="1">
          <mxGeometry x="50" y="155" width="40" height="50" as="geometry" />
        </mxCell>
        <mxCell id="Fcmm4_oHTly-XwnHd6Lo-41" value="" style="edgeStyle=orthogonalEdgeStyle;rounded=0;orthogonalLoop=1;jettySize=auto;html=1;" edge="1" parent="1" source="Fcmm4_oHTly-XwnHd6Lo-42" target="Fcmm4_oHTly-XwnHd6Lo-44">
          <mxGeometry relative="1" as="geometry" />
        </mxCell>
        <mxCell id="Fcmm4_oHTly-XwnHd6Lo-42" value="1" style="whiteSpace=wrap;html=1;aspect=fixed;fillColor=#1ba1e2;fontColor=#ffffff;strokeColor=#006EAF;" vertex="1" parent="1">
          <mxGeometry x="55" y="490" width="40" height="40" as="geometry" />
        </mxCell>
        <mxCell id="Fcmm4_oHTly-XwnHd6Lo-43" value="" style="edgeStyle=orthogonalEdgeStyle;rounded=0;orthogonalLoop=1;jettySize=auto;html=1;" edge="1" parent="1" source="Fcmm4_oHTly-XwnHd6Lo-44" target="Fcmm4_oHTly-XwnHd6Lo-46">
          <mxGeometry relative="1" as="geometry" />
        </mxCell>
        <mxCell id="Fcmm4_oHTly-XwnHd6Lo-44" value="2" style="whiteSpace=wrap;html=1;aspect=fixed;fillColor=#1ba1e2;fontColor=#ffffff;strokeColor=#006EAF;" vertex="1" parent="1">
          <mxGeometry x="175" y="490" width="40" height="40" as="geometry" />
        </mxCell>
        <mxCell id="Fcmm4_oHTly-XwnHd6Lo-45" value="" style="edgeStyle=orthogonalEdgeStyle;rounded=0;orthogonalLoop=1;jettySize=auto;html=1;" edge="1" parent="1" source="Fcmm4_oHTly-XwnHd6Lo-46" target="Fcmm4_oHTly-XwnHd6Lo-48">
          <mxGeometry relative="1" as="geometry" />
        </mxCell>
        <mxCell id="Fcmm4_oHTly-XwnHd6Lo-46" value="3" style="whiteSpace=wrap;html=1;aspect=fixed;fillColor=#1ba1e2;fontColor=#ffffff;strokeColor=#006EAF;" vertex="1" parent="1">
          <mxGeometry x="295" y="490" width="40" height="40" as="geometry" />
        </mxCell>
        <mxCell id="Fcmm4_oHTly-XwnHd6Lo-47" value="" style="edgeStyle=orthogonalEdgeStyle;rounded=0;orthogonalLoop=1;jettySize=auto;html=1;" edge="1" parent="1" source="Fcmm4_oHTly-XwnHd6Lo-48" target="Fcmm4_oHTly-XwnHd6Lo-50">
          <mxGeometry relative="1" as="geometry" />
        </mxCell>
        <mxCell id="Fcmm4_oHTly-XwnHd6Lo-48" value="4" style="whiteSpace=wrap;html=1;aspect=fixed;fillColor=#1ba1e2;fontColor=#ffffff;strokeColor=#006EAF;" vertex="1" parent="1">
          <mxGeometry x="415" y="490" width="40" height="40" as="geometry" />
        </mxCell>
        <mxCell id="Fcmm4_oHTly-XwnHd6Lo-49" value="" style="edgeStyle=orthogonalEdgeStyle;rounded=0;orthogonalLoop=1;jettySize=auto;html=1;" edge="1" parent="1" source="Fcmm4_oHTly-XwnHd6Lo-50" target="Fcmm4_oHTly-XwnHd6Lo-51">
          <mxGeometry relative="1" as="geometry" />
        </mxCell>
        <mxCell id="Fcmm4_oHTly-XwnHd6Lo-50" value="5" style="whiteSpace=wrap;html=1;aspect=fixed;fillColor=#1ba1e2;fontColor=#ffffff;strokeColor=#006EAF;" vertex="1" parent="1">
          <mxGeometry x="535" y="490" width="40" height="40" as="geometry" />
        </mxCell>
        <mxCell id="Fcmm4_oHTly-XwnHd6Lo-51" value="NULL" style="whiteSpace=wrap;html=1;aspect=fixed;fillColor=#1ba1e2;fontColor=#ffffff;strokeColor=#006EAF;" vertex="1" parent="1">
          <mxGeometry x="655" y="490" width="40" height="40" as="geometry" />
        </mxCell>
        <mxCell id="Fcmm4_oHTly-XwnHd6Lo-52" value="" style="shape=curlyBracket;whiteSpace=wrap;html=1;rounded=1;flipH=1;direction=north;rotation=0;size=0.5;strokeColor=#007FFF;" vertex="1" parent="1">
          <mxGeometry x="80" y="540" width="360" height="20" as="geometry" />
        </mxCell>
        <mxCell id="Fcmm4_oHTly-XwnHd6Lo-53" value="&lt;h2&gt;&lt;font face=&quot;Verdana&quot; color=&quot;#007fff&quot;&gt;n-k步&lt;/font&gt;&lt;/h2&gt;" style="text;html=1;align=center;verticalAlign=middle;resizable=0;points=[];autosize=1;strokeColor=none;fillColor=none;" vertex="1" parent="1">
          <mxGeometry x="220" y="560" width="70" height="50" as="geometry" />
        </mxCell>
        <mxCell id="Fcmm4_oHTly-XwnHd6Lo-54" value="" style="shape=singleArrow;direction=south;whiteSpace=wrap;html=1;fillColor=#60a917;fontColor=#ffffff;strokeColor=#2D7600;" vertex="1" parent="1">
          <mxGeometry x="660" y="430" width="30" height="50" as="geometry" />
        </mxCell>
        <mxCell id="Fcmm4_oHTly-XwnHd6Lo-55" value="" style="shape=singleArrow;direction=south;whiteSpace=wrap;html=1;fillColor=#33FFFF;fontColor=#FFFF00;strokeColor=#2D7600;" vertex="1" parent="1">
          <mxGeometry x="420" y="430" width="30" height="50" as="geometry" />
        </mxCell>
        <mxCell id="Fcmm4_oHTly-XwnHd6Lo-56" value="&lt;h2&gt;&lt;font color=&quot;#331a00&quot;&gt;p2&lt;/font&gt;&lt;/h2&gt;" style="text;html=1;align=center;verticalAlign=middle;resizable=0;points=[];autosize=1;strokeColor=none;fillColor=none;fontFamily=Verdana;fontColor=#FFFF00;" vertex="1" parent="1">
          <mxGeometry x="410" y="380" width="40" height="50" as="geometry" />
        </mxCell>
        <mxCell id="Fcmm4_oHTly-XwnHd6Lo-57" value="&lt;h2&gt;p1&lt;/h2&gt;" style="text;html=1;align=center;verticalAlign=middle;resizable=0;points=[];autosize=1;strokeColor=none;fillColor=none;" vertex="1" parent="1">
          <mxGeometry x="655" y="380" width="40" height="50" as="geometry" />
        </mxCell>
        <mxCell id="Fcmm4_oHTly-XwnHd6Lo-58" value="" style="shape=singleArrow;direction=south;whiteSpace=wrap;html=1;dashed=1;" vertex="1" parent="1">
          <mxGeometry x="65" y="430" width="30" height="50" as="geometry" />
        </mxCell>
        <mxCell id="Fcmm4_oHTly-XwnHd6Lo-59" value="&lt;h2&gt;&lt;font color=&quot;#331a00&quot;&gt;p2&lt;/font&gt;&lt;/h2&gt;" style="text;html=1;align=center;verticalAlign=middle;resizable=0;points=[];autosize=1;strokeColor=none;fillColor=none;fontFamily=Verdana;fontColor=#FFFF00;" vertex="1" parent="1">
          <mxGeometry x="65" y="380" width="40" height="50" as="geometry" />
        </mxCell>
        <mxCell id="Fcmm4_oHTly-XwnHd6Lo-60" value="" style="shape=singleArrow;direction=south;whiteSpace=wrap;html=1;dashed=1;" vertex="1" parent="1">
          <mxGeometry x="305" y="430" width="30" height="50" as="geometry" />
        </mxCell>
        <mxCell id="Fcmm4_oHTly-XwnHd6Lo-61" value="&lt;h2&gt;p1&lt;/h2&gt;" style="text;html=1;align=center;verticalAlign=middle;resizable=0;points=[];autosize=1;strokeColor=none;fillColor=none;" vertex="1" parent="1">
          <mxGeometry x="300" y="380" width="40" height="50" as="geometry" />
        </mxCell>
        <mxCell id="Fcmm4_oHTly-XwnHd6Lo-62" value="" style="shape=curlyBracket;whiteSpace=wrap;html=1;rounded=1;flipH=1;direction=north;rotation=0;size=0.5;strokeColor=#33FF33;" vertex="1" parent="1">
          <mxGeometry x="310" y="550" width="360" height="20" as="geometry" />
        </mxCell>
        <mxCell id="Fcmm4_oHTly-XwnHd6Lo-63" value="&lt;h2&gt;&lt;font face=&quot;Verdana&quot; color=&quot;#33ff33&quot;&gt;n-k步&lt;/font&gt;&lt;/h2&gt;" style="text;html=1;align=center;verticalAlign=middle;resizable=0;points=[];autosize=1;strokeColor=none;fillColor=none;" vertex="1" parent="1">
          <mxGeometry x="460" y="560" width="70" height="50" as="geometry" />
        </mxCell>
      </root>
    </mxGraphModel>
  </diagram>
</mxfile>
